<?xml version="1.0" encoding="UTF-8" standalone="no"?>
<!DOCTYPE svg PUBLIC "-//W3C//DTD SVG 1.1//EN"
 "http://www.w3.org/Graphics/SVG/1.1/DTD/svg11.dtd">
<!-- Generated by graphviz version 5.0.0 (20220707.1540)
 -->
<!-- Title: G Pages: 1 -->
<svg width="409pt" height="653pt"
 viewBox="0.00 0.00 409.00 653.00" xmlns="http://www.w3.org/2000/svg" xmlns:xlink="http://www.w3.org/1999/xlink">
<g id="graph0" class="graph" transform="scale(1 1) rotate(0) translate(4 649)">
<title>G</title>
<polygon fill="white" stroke="transparent" points="-4,4 -4,-649 405,-649 405,4 -4,4"/>
<!-- Node0 -->
<g id="node1" class="node">
<title>Node0</title>
<ellipse fill="none" stroke="black" cx="79" cy="-627" rx="34.39" ry="18"/>
<text text-anchor="middle" x="79" y="-623.3" font-family="Times,serif" font-size="14.00">Node0</text>
</g>
<!-- Node2 -->
<g id="node2" class="node">
<title>Node2</title>
<ellipse fill="none" stroke="black" cx="79" cy="-540" rx="34.39" ry="18"/>
<text text-anchor="middle" x="79" y="-536.3" font-family="Times,serif" font-size="14.00">Node2</text>
</g>
<!-- Node0&#45;&gt;Node2 -->
<g id="edge1" class="edge">
<title>Node0&#45;&gt;Node2</title>
<path fill="none" stroke="black" d="M69.08,-609.48C66.21,-603.82 63.45,-597.32 62,-591 60.15,-582.96 61.7,-574.39 64.49,-566.66"/>
<polygon fill="black" stroke="black" points="67.73,-567.99 68.53,-557.42 61.32,-565.19 67.73,-567.99"/>
<text text-anchor="middle" x="69" y="-579.8" font-family="Times,serif" font-size="14.00">15</text>
</g>
<!-- Node2&#45;&gt;Node0 -->
<g id="edge23" class="edge">
<title>Node2&#45;&gt;Node0</title>
<path fill="none" stroke="black" d="M79,-558.18C79,-569.81 79,-585.42 79,-598.73"/>
<polygon fill="black" stroke="black" points="75.5,-598.8 79,-608.8 82.5,-598.8 75.5,-598.8"/>
<text text-anchor="middle" x="86" y="-579.8" font-family="Times,serif" font-size="14.00">15</text>
</g>
<!-- Node3 -->
<g id="node3" class="node">
<title>Node3</title>
<ellipse fill="none" stroke="black" cx="145" cy="-105" rx="34.39" ry="18"/>
<text text-anchor="middle" x="145" y="-101.3" font-family="Times,serif" font-size="14.00">Node3</text>
</g>
<!-- Node2&#45;&gt;Node3 -->
<g id="edge2" class="edge">
<title>Node2&#45;&gt;Node3</title>
<path fill="none" stroke="black" d="M54.36,-527.24C43.99,-521.37 32.41,-513.48 24,-504 7.64,-485.56 0,-478.65 0,-454 0,-454 0,-454 0,-191 0,-166.35 5.19,-156.93 24,-141 45.49,-122.81 75.97,-114.06 100.97,-109.86"/>
<polygon fill="black" stroke="black" points="101.57,-113.31 110.95,-108.37 100.54,-106.39 101.57,-113.31"/>
<text text-anchor="middle" x="7" y="-318.8" font-family="Times,serif" font-size="14.00">22</text>
</g>
<!-- Node4 -->
<g id="node4" class="node">
<title>Node4</title>
<ellipse fill="none" stroke="black" cx="195" cy="-453" rx="34.39" ry="18"/>
<text text-anchor="middle" x="195" y="-449.3" font-family="Times,serif" font-size="14.00">Node4</text>
</g>
<!-- Node2&#45;&gt;Node4 -->
<g id="edge3" class="edge">
<title>Node2&#45;&gt;Node4</title>
<path fill="none" stroke="black" d="M97.98,-524.67C111.35,-514.62 129.71,-500.9 146,-489 152.77,-484.06 160.1,-478.78 166.98,-473.86"/>
<polygon fill="black" stroke="black" points="169.27,-476.53 175.38,-467.87 165.21,-470.83 169.27,-476.53"/>
<text text-anchor="middle" x="153" y="-492.8" font-family="Times,serif" font-size="14.00">22</text>
</g>
<!-- Node3&#45;&gt;Node2 -->
<g id="edge21" class="edge">
<title>Node3&#45;&gt;Node2</title>
<path fill="none" stroke="black" d="M116.04,-114.99C84.36,-126.85 38,-151.02 38,-191 38,-454 38,-454 38,-454 38,-476.12 49.4,-498.55 60.18,-514.81"/>
<polygon fill="black" stroke="black" points="57.43,-516.98 66.03,-523.16 63.16,-512.96 57.43,-516.98"/>
<text text-anchor="middle" x="45" y="-318.8" font-family="Times,serif" font-size="14.00">22</text>
</g>
<!-- Node6 -->
<g id="node5" class="node">
<title>Node6</title>
<ellipse fill="none" stroke="black" cx="150" cy="-192" rx="34.39" ry="18"/>
<text text-anchor="middle" x="150" y="-188.3" font-family="Times,serif" font-size="14.00">Node6</text>
</g>
<!-- Node3&#45;&gt;Node6 -->
<g id="edge4" class="edge">
<title>Node3&#45;&gt;Node6</title>
<path fill="none" stroke="black" d="M146.01,-123.18C146.69,-134.81 147.61,-150.42 148.4,-163.73"/>
<polygon fill="black" stroke="black" points="144.91,-164.02 148.99,-173.8 151.89,-163.61 144.91,-164.02"/>
<text text-anchor="middle" x="154" y="-144.8" font-family="Times,serif" font-size="14.00">38</text>
</g>
<!-- Node5 -->
<g id="node6" class="node">
<title>Node5</title>
<ellipse fill="none" stroke="black" cx="240" cy="-18" rx="34.39" ry="18"/>
<text text-anchor="middle" x="240" y="-14.3" font-family="Times,serif" font-size="14.00">Node5</text>
</g>
<!-- Node3&#45;&gt;Node5 -->
<g id="edge5" class="edge">
<title>Node3&#45;&gt;Node5</title>
<path fill="none" stroke="black" d="M142.06,-86.65C141.27,-76.21 142.12,-63.21 149,-54 160.26,-38.92 178.91,-30.34 196.4,-25.46"/>
<polygon fill="black" stroke="black" points="197.62,-28.76 206.5,-22.99 195.95,-21.96 197.62,-28.76"/>
<text text-anchor="middle" x="156" y="-57.8" font-family="Times,serif" font-size="14.00">12</text>
</g>
<!-- Node4&#45;&gt;Node2 -->
<g id="edge19" class="edge">
<title>Node4&#45;&gt;Node2</title>
<path fill="none" stroke="black" d="M186.5,-470.66C180.35,-481.35 171.17,-494.89 160,-504 147.75,-513.99 132.21,-521.61 118.03,-527.15"/>
<polygon fill="black" stroke="black" points="116.67,-523.93 108.49,-530.66 119.08,-530.5 116.67,-523.93"/>
<text text-anchor="middle" x="180" y="-492.8" font-family="Times,serif" font-size="14.00">22</text>
</g>
<!-- Node4&#45;&gt;Node5 -->
<g id="edge6" class="edge">
<title>Node4&#45;&gt;Node5</title>
<path fill="none" stroke="black" d="M228.42,-448.39C273.71,-441.44 349,-421.66 349,-367 349,-367 349,-367 349,-104 349,-67.25 309.99,-44.05 278.64,-31.34"/>
<polygon fill="black" stroke="black" points="279.8,-28.03 269.21,-27.73 277.3,-34.57 279.8,-28.03"/>
<text text-anchor="middle" x="356" y="-231.8" font-family="Times,serif" font-size="14.00">24</text>
</g>
<!-- Node8 -->
<g id="node7" class="node">
<title>Node8</title>
<ellipse fill="none" stroke="black" cx="188" cy="-366" rx="34.39" ry="18"/>
<text text-anchor="middle" x="188" y="-362.3" font-family="Times,serif" font-size="14.00">Node8</text>
</g>
<!-- Node4&#45;&gt;Node8 -->
<g id="edge7" class="edge">
<title>Node4&#45;&gt;Node8</title>
<path fill="none" stroke="black" d="M181.3,-436.34C177.16,-430.64 173.14,-423.9 171,-417 168.49,-408.91 170.01,-400.14 172.97,-392.24"/>
<polygon fill="black" stroke="black" points="176.16,-393.69 177.13,-383.14 169.79,-390.78 176.16,-393.69"/>
<text text-anchor="middle" x="178" y="-405.8" font-family="Times,serif" font-size="14.00">30</text>
</g>
<!-- Node6&#45;&gt;Node3 -->
<g id="edge18" class="edge">
<title>Node6&#45;&gt;Node3</title>
<path fill="none" stroke="black" d="M137.99,-175.11C134.37,-169.39 130.85,-162.69 129,-156 126.81,-148.09 128.14,-139.57 130.78,-131.83"/>
<polygon fill="black" stroke="black" points="134.03,-133.14 134.66,-122.57 127.57,-130.44 134.03,-133.14"/>
<text text-anchor="middle" x="136" y="-144.8" font-family="Times,serif" font-size="14.00">38</text>
</g>
<!-- Node6&#45;&gt;Node5 -->
<g id="edge8" class="edge">
<title>Node6&#45;&gt;Node5</title>
<path fill="none" stroke="black" d="M159.43,-174.63C167.25,-160.92 178.58,-140.81 188,-123 202,-96.54 217.23,-65.84 227.56,-44.69"/>
<polygon fill="black" stroke="black" points="230.71,-46.21 231.95,-35.69 224.42,-43.15 230.71,-46.21"/>
<text text-anchor="middle" x="212" y="-101.3" font-family="Times,serif" font-size="14.00">10</text>
</g>
<!-- Node7 -->
<g id="node8" class="node">
<title>Node7</title>
<ellipse fill="none" stroke="black" cx="187" cy="-279" rx="34.39" ry="18"/>
<text text-anchor="middle" x="187" y="-275.3" font-family="Times,serif" font-size="14.00">Node7</text>
</g>
<!-- Node6&#45;&gt;Node7 -->
<g id="edge9" class="edge">
<title>Node6&#45;&gt;Node7</title>
<path fill="none" stroke="black" d="M157.29,-209.76C162.51,-221.74 169.63,-238.1 175.6,-251.8"/>
<polygon fill="black" stroke="black" points="172.49,-253.43 179.69,-261.21 178.91,-250.64 172.49,-253.43"/>
<text text-anchor="middle" x="177" y="-231.8" font-family="Times,serif" font-size="14.00">10</text>
</g>
<!-- Node5&#45;&gt;Node3 -->
<g id="edge13" class="edge">
<title>Node5&#45;&gt;Node3</title>
<path fill="none" stroke="black" d="M217.57,-31.8C207.72,-37.92 196.3,-45.71 187,-54 178.41,-61.66 170.02,-71.11 163.03,-79.72"/>
<polygon fill="black" stroke="black" points="160.23,-77.62 156.8,-87.64 165.73,-81.95 160.23,-77.62"/>
<text text-anchor="middle" x="194" y="-57.8" font-family="Times,serif" font-size="14.00">12</text>
</g>
<!-- Node5&#45;&gt;Node4 -->
<g id="edge11" class="edge">
<title>Node5&#45;&gt;Node4</title>
<path fill="none" stroke="black" d="M272.99,-23.31C316.33,-31.05 387,-51.67 387,-104 387,-367 387,-367 387,-367 387,-431 296.69,-447.2 239.95,-451.05"/>
<polygon fill="black" stroke="black" points="239.55,-447.57 229.77,-451.64 239.95,-454.56 239.55,-447.57"/>
<text text-anchor="middle" x="394" y="-231.8" font-family="Times,serif" font-size="14.00">24</text>
</g>
<!-- Node5&#45;&gt;Node6 -->
<g id="edge10" class="edge">
<title>Node5&#45;&gt;Node6</title>
<path fill="none" stroke="black" d="M240.57,-36.32C240.56,-57.92 238.06,-95.37 223,-123 212.51,-142.25 194.55,-159.08 179.07,-171.19"/>
<polygon fill="black" stroke="black" points="176.68,-168.61 170.79,-177.41 180.89,-174.2 176.68,-168.61"/>
<text text-anchor="middle" x="242" y="-101.3" font-family="Times,serif" font-size="14.00">10</text>
</g>
<!-- Node5&#45;&gt;Node8 -->
<g id="edge12" class="edge">
<title>Node5&#45;&gt;Node8</title>
<path fill="none" stroke="black" d="M260.47,-32.65C280.17,-47.61 307,-73.56 307,-104 307,-280 307,-280 307,-280 307,-319.51 263.02,-342.4 228.53,-354.27"/>
<polygon fill="black" stroke="black" points="227.08,-351.06 218.65,-357.47 229.24,-357.72 227.08,-351.06"/>
<text text-anchor="middle" x="314" y="-188.3" font-family="Times,serif" font-size="14.00">18</text>
</g>
<!-- Node8&#45;&gt;Node4 -->
<g id="edge20" class="edge">
<title>Node8&#45;&gt;Node4</title>
<path fill="none" stroke="black" d="M189.41,-384.18C190.37,-395.81 191.66,-411.42 192.75,-424.73"/>
<polygon fill="black" stroke="black" points="189.27,-425.12 193.58,-434.8 196.25,-424.55 189.27,-425.12"/>
<text text-anchor="middle" x="198" y="-405.8" font-family="Times,serif" font-size="14.00">30</text>
</g>
<!-- Node8&#45;&gt;Node5 -->
<g id="edge15" class="edge">
<title>Node8&#45;&gt;Node5</title>
<path fill="none" stroke="black" d="M176.57,-348.75C172.53,-342.89 167.99,-336.19 164,-330 154.7,-315.59 152.78,-311.73 144,-297 121.05,-258.5 104.74,-253.25 93,-210 85.29,-181.59 96.91,-97.13 102,-87 119.89,-51.43 163.74,-34.23 197.25,-26.06"/>
<polygon fill="black" stroke="black" points="198.29,-29.42 207.28,-23.81 196.75,-22.59 198.29,-29.42"/>
<text text-anchor="middle" x="100" y="-188.3" font-family="Times,serif" font-size="14.00">18</text>
</g>
<!-- Node8&#45;&gt;Node7 -->
<g id="edge14" class="edge">
<title>Node8&#45;&gt;Node7</title>
<path fill="none" stroke="black" d="M187.8,-347.8C187.66,-336.16 187.48,-320.55 187.32,-307.24"/>
<polygon fill="black" stroke="black" points="190.82,-307.13 187.2,-297.18 183.82,-307.22 190.82,-307.13"/>
<text text-anchor="middle" x="194" y="-318.8" font-family="Times,serif" font-size="14.00">10</text>
</g>
<!-- Node7&#45;&gt;Node6 -->
<g id="edge22" class="edge">
<title>Node7&#45;&gt;Node6</title>
<path fill="none" stroke="black" d="M165.75,-264.44C158.74,-258.75 151.78,-251.47 148,-243 144.84,-235.91 144.13,-227.68 144.54,-219.96"/>
<polygon fill="black" stroke="black" points="148.03,-220.25 145.68,-209.92 141.07,-219.46 148.03,-220.25"/>
<text text-anchor="middle" x="155" y="-231.8" font-family="Times,serif" font-size="14.00">10</text>
</g>
<!-- Node7&#45;&gt;Node8 -->
<g id="edge17" class="edge">
<title>Node7&#45;&gt;Node8</title>
<path fill="none" stroke="black" d="M175.82,-296.42C170.59,-306.05 166.09,-318.55 169,-330 169.82,-333.22 171,-336.46 172.37,-339.6"/>
<polygon fill="black" stroke="black" points="169.29,-341.27 176.93,-348.61 175.54,-338.11 169.29,-341.27"/>
<text text-anchor="middle" x="176" y="-318.8" font-family="Times,serif" font-size="14.00">10</text>
</g>
<!-- Node1 -->
<g id="node9" class="node">
<title>Node1</title>
<ellipse fill="none" stroke="black" cx="237" cy="-192" rx="34.39" ry="18"/>
<text text-anchor="middle" x="237" y="-188.3" font-family="Times,serif" font-size="14.00">Node1</text>
</g>
<!-- Node7&#45;&gt;Node1 -->
<g id="edge16" class="edge">
<title>Node7&#45;&gt;Node1</title>
<path fill="none" stroke="black" d="M196.64,-261.61C203.9,-249.26 213.99,-232.12 222.26,-218.05"/>
<polygon fill="black" stroke="black" points="225.34,-219.73 227.39,-209.34 219.3,-216.18 225.34,-219.73"/>
<text text-anchor="middle" x="217.5" y="-231.8" font-family="Times,serif" font-size="14.00">5</text>
</g>
</g>
</svg>
