<?xml version="1.0" encoding="UTF-8" standalone="no"?>
<!DOCTYPE svg PUBLIC "-//W3C//DTD SVG 1.1//EN"
 "http://www.w3.org/Graphics/SVG/1.1/DTD/svg11.dtd">
<!-- Generated by graphviz version 5.0.0 (20220707.1540)
 -->
<!-- Title: G Pages: 1 -->
<svg width="465pt" height="1088pt"
 viewBox="0.00 0.00 464.69 1088.00" xmlns="http://www.w3.org/2000/svg" xmlns:xlink="http://www.w3.org/1999/xlink">
<g id="graph0" class="graph" transform="scale(1 1) rotate(0) translate(4 1084)">
<title>G</title>
<polygon fill="white" stroke="transparent" points="-4,4 -4,-1084 460.69,-1084 460.69,4 -4,4"/>
<!-- Node0 -->
<g id="node1" class="node">
<title>Node0</title>
<ellipse fill="none" stroke="black" cx="197.35" cy="-1062" rx="34.39" ry="18"/>
<text text-anchor="middle" x="197.35" y="-1058.3" font-family="Times,serif" font-size="14.00">Node0</text>
</g>
<!-- Node6 -->
<g id="node2" class="node">
<title>Node6</title>
<ellipse fill="none" stroke="black" cx="197.35" cy="-975" rx="34.39" ry="18"/>
<text text-anchor="middle" x="197.35" y="-971.3" font-family="Times,serif" font-size="14.00">Node6</text>
</g>
<!-- Node0&#45;&gt;Node6 -->
<g id="edge1" class="edge">
<title>Node0&#45;&gt;Node6</title>
<path fill="none" stroke="black" d="M197.35,-1043.8C197.35,-1032.16 197.35,-1016.55 197.35,-1003.24"/>
<polygon fill="black" stroke="black" points="200.85,-1003.18 197.35,-993.18 193.85,-1003.18 200.85,-1003.18"/>
<text text-anchor="middle" x="207.85" y="-1014.8" font-family="Times,serif" font-size="14.00">119</text>
</g>
<!-- Node4 -->
<g id="node3" class="node">
<title>Node4</title>
<ellipse fill="none" stroke="black" cx="152.35" cy="-888" rx="34.39" ry="18"/>
<text text-anchor="middle" x="152.35" y="-884.3" font-family="Times,serif" font-size="14.00">Node4</text>
</g>
<!-- Node6&#45;&gt;Node4 -->
<g id="edge2" class="edge">
<title>Node6&#45;&gt;Node4</title>
<path fill="none" stroke="black" d="M188.46,-957.21C182,-945.02 173.16,-928.32 165.84,-914.49"/>
<polygon fill="black" stroke="black" points="168.84,-912.67 161.07,-905.47 162.65,-915.94 168.84,-912.67"/>
<text text-anchor="middle" x="187.85" y="-927.8" font-family="Times,serif" font-size="14.00">180</text>
</g>
<!-- Node10 -->
<g id="node4" class="node">
<title>Node10</title>
<ellipse fill="none" stroke="black" cx="243.35" cy="-888" rx="38.19" ry="18"/>
<text text-anchor="middle" x="243.35" y="-884.3" font-family="Times,serif" font-size="14.00">Node10</text>
</g>
<!-- Node6&#45;&gt;Node10 -->
<g id="edge3" class="edge">
<title>Node6&#45;&gt;Node10</title>
<path fill="none" stroke="black" d="M206.43,-957.21C212.99,-945.1 221.95,-928.53 229.41,-914.76"/>
<polygon fill="black" stroke="black" points="232.6,-916.22 234.28,-905.76 226.44,-912.89 232.6,-916.22"/>
<text text-anchor="middle" x="232.85" y="-927.8" font-family="Times,serif" font-size="14.00">138</text>
</g>
<!-- Node5 -->
<g id="node5" class="node">
<title>Node5</title>
<ellipse fill="none" stroke="black" cx="121.35" cy="-801" rx="34.39" ry="18"/>
<text text-anchor="middle" x="121.35" y="-797.3" font-family="Times,serif" font-size="14.00">Node5</text>
</g>
<!-- Node4&#45;&gt;Node5 -->
<g id="edge4" class="edge">
<title>Node4&#45;&gt;Node5</title>
<path fill="none" stroke="black" d="M146.1,-870.28C143.94,-864.49 141.53,-857.97 139.35,-852 136.57,-844.41 133.59,-836.16 130.86,-828.59"/>
<polygon fill="black" stroke="black" points="134.14,-827.37 127.47,-819.14 127.55,-829.73 134.14,-827.37"/>
<text text-anchor="middle" x="149.85" y="-840.8" font-family="Times,serif" font-size="14.00">260</text>
</g>
<!-- Node8 -->
<g id="node6" class="node">
<title>Node8</title>
<ellipse fill="none" stroke="black" cx="208.35" cy="-801" rx="34.39" ry="18"/>
<text text-anchor="middle" x="208.35" y="-797.3" font-family="Times,serif" font-size="14.00">Node8</text>
</g>
<!-- Node4&#45;&gt;Node8 -->
<g id="edge5" class="edge">
<title>Node4&#45;&gt;Node8</title>
<path fill="none" stroke="black" d="M163.14,-870.61C171.28,-858.26 182.58,-841.12 191.84,-827.05"/>
<polygon fill="black" stroke="black" points="195,-828.61 197.58,-818.34 189.16,-824.76 195,-828.61"/>
<text text-anchor="middle" x="190.35" y="-840.8" font-family="Times,serif" font-size="14.00">78</text>
</g>
<!-- Node10&#45;&gt;Node8 -->
<g id="edge6" class="edge">
<title>Node10&#45;&gt;Node8</title>
<path fill="none" stroke="black" d="M236.43,-870.21C231.49,-858.22 224.76,-841.85 219.12,-828.16"/>
<polygon fill="black" stroke="black" points="222.29,-826.67 215.25,-818.76 215.82,-829.34 222.29,-826.67"/>
<text text-anchor="middle" x="237.85" y="-840.8" font-family="Times,serif" font-size="14.00">188</text>
</g>
<!-- Node18 -->
<g id="node7" class="node">
<title>Node18</title>
<ellipse fill="none" stroke="black" cx="299.35" cy="-801" rx="38.19" ry="18"/>
<text text-anchor="middle" x="299.35" y="-797.3" font-family="Times,serif" font-size="14.00">Node18</text>
</g>
<!-- Node10&#45;&gt;Node18 -->
<g id="edge7" class="edge">
<title>Node10&#45;&gt;Node18</title>
<path fill="none" stroke="black" d="M254.14,-870.61C262.28,-858.26 273.58,-841.12 282.84,-827.05"/>
<polygon fill="black" stroke="black" points="286,-828.61 288.58,-818.34 280.16,-824.76 286,-828.61"/>
<text text-anchor="middle" x="284.85" y="-840.8" font-family="Times,serif" font-size="14.00">226</text>
</g>
<!-- Node2 -->
<g id="node8" class="node">
<title>Node2</title>
<ellipse fill="none" stroke="black" cx="84.35" cy="-714" rx="34.39" ry="18"/>
<text text-anchor="middle" x="84.35" y="-710.3" font-family="Times,serif" font-size="14.00">Node2</text>
</g>
<!-- Node5&#45;&gt;Node2 -->
<g id="edge8" class="edge">
<title>Node5&#45;&gt;Node2</title>
<path fill="none" stroke="black" d="M110.5,-783.69C106.96,-777.94 103.21,-771.33 100.35,-765 97,-757.61 94.05,-749.32 91.62,-741.64"/>
<polygon fill="black" stroke="black" points="94.96,-740.6 88.74,-732.03 88.26,-742.61 94.96,-740.6"/>
<text text-anchor="middle" x="110.85" y="-753.8" font-family="Times,serif" font-size="14.00">206</text>
</g>
<!-- Node9 -->
<g id="node9" class="node">
<title>Node9</title>
<ellipse fill="none" stroke="black" cx="171.35" cy="-714" rx="34.39" ry="18"/>
<text text-anchor="middle" x="171.35" y="-710.3" font-family="Times,serif" font-size="14.00">Node9</text>
</g>
<!-- Node5&#45;&gt;Node9 -->
<g id="edge9" class="edge">
<title>Node5&#45;&gt;Node9</title>
<path fill="none" stroke="black" d="M130.99,-783.61C138.25,-771.26 148.34,-754.12 156.61,-740.05"/>
<polygon fill="black" stroke="black" points="159.68,-741.73 161.74,-731.34 153.65,-738.18 159.68,-741.73"/>
<text text-anchor="middle" x="158.85" y="-753.8" font-family="Times,serif" font-size="14.00">116</text>
</g>
<!-- Node8&#45;&gt;Node9 -->
<g id="edge10" class="edge">
<title>Node8&#45;&gt;Node9</title>
<path fill="none" stroke="black" d="M198.12,-783.61C194.76,-777.85 191.16,-771.25 188.35,-765 184.99,-757.56 181.92,-749.25 179.33,-741.57"/>
<polygon fill="black" stroke="black" points="182.63,-740.42 176.23,-731.98 175.97,-742.57 182.63,-740.42"/>
<text text-anchor="middle" x="198.85" y="-753.8" font-family="Times,serif" font-size="14.00">102</text>
</g>
<!-- Node16 -->
<g id="node10" class="node">
<title>Node16</title>
<ellipse fill="none" stroke="black" cx="262.35" cy="-714" rx="38.19" ry="18"/>
<text text-anchor="middle" x="262.35" y="-710.3" font-family="Times,serif" font-size="14.00">Node16</text>
</g>
<!-- Node8&#45;&gt;Node16 -->
<g id="edge11" class="edge">
<title>Node8&#45;&gt;Node16</title>
<path fill="none" stroke="black" d="M218.76,-783.61C226.6,-771.26 237.5,-754.12 246.43,-740.05"/>
<polygon fill="black" stroke="black" points="249.56,-741.66 251.97,-731.34 243.65,-737.9 249.56,-741.66"/>
<text text-anchor="middle" x="248.85" y="-753.8" font-family="Times,serif" font-size="14.00">208</text>
</g>
<!-- Node18&#45;&gt;Node16 -->
<g id="edge12" class="edge">
<title>Node18&#45;&gt;Node16</title>
<path fill="none" stroke="black" d="M292.04,-783.21C286.82,-771.22 279.69,-754.85 273.73,-741.16"/>
<polygon fill="black" stroke="black" points="276.84,-739.53 269.64,-731.76 270.42,-742.32 276.84,-739.53"/>
<text text-anchor="middle" x="292.85" y="-753.8" font-family="Times,serif" font-size="14.00">130</text>
</g>
<!-- Node21 -->
<g id="node11" class="node">
<title>Node21</title>
<ellipse fill="none" stroke="black" cx="357.35" cy="-714" rx="38.19" ry="18"/>
<text text-anchor="middle" x="357.35" y="-710.3" font-family="Times,serif" font-size="14.00">Node21</text>
</g>
<!-- Node18&#45;&gt;Node21 -->
<g id="edge13" class="edge">
<title>Node18&#45;&gt;Node21</title>
<path fill="none" stroke="black" d="M310.53,-783.61C319.03,-771.15 330.88,-753.79 340.52,-739.65"/>
<polygon fill="black" stroke="black" points="343.45,-741.57 346.2,-731.34 337.67,-737.63 343.45,-741.57"/>
<text text-anchor="middle" x="341.85" y="-753.8" font-family="Times,serif" font-size="14.00">146</text>
</g>
<!-- Node3 -->
<g id="node12" class="node">
<title>Node3</title>
<ellipse fill="none" stroke="black" cx="38.35" cy="-627" rx="34.39" ry="18"/>
<text text-anchor="middle" x="38.35" y="-623.3" font-family="Times,serif" font-size="14.00">Node3</text>
</g>
<!-- Node2&#45;&gt;Node3 -->
<g id="edge14" class="edge">
<title>Node2&#45;&gt;Node3</title>
<path fill="none" stroke="black" d="M75.26,-696.21C68.66,-684.02 59.62,-667.32 52.14,-653.49"/>
<polygon fill="black" stroke="black" points="55.1,-651.6 47.26,-644.47 48.94,-654.93 55.1,-651.6"/>
<text text-anchor="middle" x="74.85" y="-666.8" font-family="Times,serif" font-size="14.00">168</text>
</g>
<!-- Node11 -->
<g id="node13" class="node">
<title>Node11</title>
<ellipse fill="none" stroke="black" cx="129.35" cy="-627" rx="38.19" ry="18"/>
<text text-anchor="middle" x="129.35" y="-623.3" font-family="Times,serif" font-size="14.00">Node11</text>
</g>
<!-- Node2&#45;&gt;Node11 -->
<g id="edge15" class="edge">
<title>Node2&#45;&gt;Node11</title>
<path fill="none" stroke="black" d="M93.24,-696.21C99.65,-684.1 108.42,-667.53 115.71,-653.76"/>
<polygon fill="black" stroke="black" points="118.89,-655.23 120.47,-644.76 112.7,-651.96 118.89,-655.23"/>
<text text-anchor="middle" x="119.85" y="-666.8" font-family="Times,serif" font-size="14.00">128</text>
</g>
<!-- Node9&#45;&gt;Node11 -->
<g id="edge16" class="edge">
<title>Node9&#45;&gt;Node11</title>
<path fill="none" stroke="black" d="M163.05,-696.21C157.07,-684.1 148.88,-667.53 142.07,-653.76"/>
<polygon fill="black" stroke="black" points="145.2,-652.17 137.63,-644.76 138.92,-655.27 145.2,-652.17"/>
<text text-anchor="middle" x="162.85" y="-666.8" font-family="Times,serif" font-size="14.00">102</text>
</g>
<!-- Node17 -->
<g id="node14" class="node">
<title>Node17</title>
<ellipse fill="none" stroke="black" cx="224.35" cy="-627" rx="38.19" ry="18"/>
<text text-anchor="middle" x="224.35" y="-623.3" font-family="Times,serif" font-size="14.00">Node17</text>
</g>
<!-- Node9&#45;&gt;Node17 -->
<g id="edge17" class="edge">
<title>Node9&#45;&gt;Node17</title>
<path fill="none" stroke="black" d="M181.57,-696.61C189.21,-684.34 199.82,-667.34 208.56,-653.32"/>
<polygon fill="black" stroke="black" points="211.66,-654.97 213.98,-644.63 205.72,-651.26 211.66,-654.97"/>
<text text-anchor="middle" x="210.85" y="-666.8" font-family="Times,serif" font-size="14.00">186</text>
</g>
<!-- Node16&#45;&gt;Node17 -->
<g id="edge18" class="edge">
<title>Node16&#45;&gt;Node17</title>
<path fill="none" stroke="black" d="M253.41,-696.42C250.41,-690.65 247.12,-684.09 244.35,-678 240.86,-670.34 237.35,-661.89 234.27,-654.15"/>
<polygon fill="black" stroke="black" points="237.53,-652.87 230.62,-644.83 231.01,-655.42 237.53,-652.87"/>
<text text-anchor="middle" x="254.85" y="-666.8" font-family="Times,serif" font-size="14.00">148</text>
</g>
<!-- Node24 -->
<g id="node15" class="node">
<title>Node24</title>
<ellipse fill="none" stroke="black" cx="319.35" cy="-627" rx="38.19" ry="18"/>
<text text-anchor="middle" x="319.35" y="-623.3" font-family="Times,serif" font-size="14.00">Node24</text>
</g>
<!-- Node16&#45;&gt;Node24 -->
<g id="edge19" class="edge">
<title>Node16&#45;&gt;Node24</title>
<path fill="none" stroke="black" d="M273.34,-696.61C281.7,-684.15 293.33,-666.79 302.81,-652.65"/>
<polygon fill="black" stroke="black" points="305.73,-654.59 308.39,-644.34 299.91,-650.69 305.73,-654.59"/>
<text text-anchor="middle" x="303.85" y="-666.8" font-family="Times,serif" font-size="14.00">138</text>
</g>
<!-- Node21&#45;&gt;Node24 -->
<g id="edge20" class="edge">
<title>Node21&#45;&gt;Node24</title>
<path fill="none" stroke="black" d="M349.84,-696.21C344.48,-684.22 337.16,-667.85 331.04,-654.16"/>
<polygon fill="black" stroke="black" points="334.12,-652.46 326.84,-644.76 327.72,-655.32 334.12,-652.46"/>
<text text-anchor="middle" x="350.85" y="-666.8" font-family="Times,serif" font-size="14.00">106</text>
</g>
<!-- Node25 -->
<g id="node16" class="node">
<title>Node25</title>
<ellipse fill="none" stroke="black" cx="414.35" cy="-627" rx="38.19" ry="18"/>
<text text-anchor="middle" x="414.35" y="-623.3" font-family="Times,serif" font-size="14.00">Node25</text>
</g>
<!-- Node21&#45;&gt;Node25 -->
<g id="edge21" class="edge">
<title>Node21&#45;&gt;Node25</title>
<path fill="none" stroke="black" d="M368.34,-696.61C376.7,-684.15 388.33,-666.79 397.81,-652.65"/>
<polygon fill="black" stroke="black" points="400.73,-654.59 403.39,-644.34 394.91,-650.69 400.73,-654.59"/>
<text text-anchor="middle" x="398.85" y="-666.8" font-family="Times,serif" font-size="14.00">136</text>
</g>
<!-- Node12 -->
<g id="node17" class="node">
<title>Node12</title>
<ellipse fill="none" stroke="black" cx="38.35" cy="-453" rx="38.19" ry="18"/>
<text text-anchor="middle" x="38.35" y="-449.3" font-family="Times,serif" font-size="14.00">Node12</text>
</g>
<!-- Node3&#45;&gt;Node12 -->
<g id="edge22" class="edge">
<title>Node3&#45;&gt;Node12</title>
<path fill="none" stroke="black" d="M35.79,-609C33.86,-595.28 31.37,-575.44 30.35,-558 29.41,-542.03 29.41,-537.97 30.35,-522 31.14,-508.51 32.8,-493.59 34.41,-481.17"/>
<polygon fill="black" stroke="black" points="37.92,-481.38 35.79,-471 30.98,-480.44 37.92,-481.38"/>
<text text-anchor="middle" x="40.85" y="-536.3" font-family="Times,serif" font-size="14.00">482</text>
</g>
<!-- Node7 -->
<g id="node18" class="node">
<title>Node7</title>
<ellipse fill="none" stroke="black" cx="94.35" cy="-540" rx="34.39" ry="18"/>
<text text-anchor="middle" x="94.35" y="-536.3" font-family="Times,serif" font-size="14.00">Node7</text>
</g>
<!-- Node3&#45;&gt;Node7 -->
<g id="edge23" class="edge">
<title>Node3&#45;&gt;Node7</title>
<path fill="none" stroke="black" d="M49.14,-609.61C57.28,-597.26 68.58,-580.12 77.84,-566.05"/>
<polygon fill="black" stroke="black" points="81,-567.61 83.58,-557.34 75.16,-563.76 81,-567.61"/>
<text text-anchor="middle" x="80.85" y="-579.8" font-family="Times,serif" font-size="14.00">180</text>
</g>
<!-- Node11&#45;&gt;Node7 -->
<g id="edge24" class="edge">
<title>Node11&#45;&gt;Node7</title>
<path fill="none" stroke="black" d="M118.99,-609.66C115.62,-603.91 112.05,-597.3 109.35,-591 106.2,-583.67 103.45,-575.47 101.18,-567.87"/>
<polygon fill="black" stroke="black" points="104.49,-566.69 98.42,-558 97.75,-568.58 104.49,-566.69"/>
<text text-anchor="middle" x="119.85" y="-579.8" font-family="Times,serif" font-size="14.00">228</text>
</g>
<!-- Node13 -->
<g id="node19" class="node">
<title>Node13</title>
<ellipse fill="none" stroke="black" cx="185.35" cy="-540" rx="38.19" ry="18"/>
<text text-anchor="middle" x="185.35" y="-536.3" font-family="Times,serif" font-size="14.00">Node13</text>
</g>
<!-- Node11&#45;&gt;Node13 -->
<g id="edge25" class="edge">
<title>Node11&#45;&gt;Node13</title>
<path fill="none" stroke="black" d="M140.14,-609.61C148.28,-597.26 159.58,-580.12 168.84,-566.05"/>
<polygon fill="black" stroke="black" points="172,-567.61 174.58,-557.34 166.16,-563.76 172,-567.61"/>
<text text-anchor="middle" x="167.35" y="-579.8" font-family="Times,serif" font-size="14.00">52</text>
</g>
<!-- Node17&#45;&gt;Node13 -->
<g id="edge26" class="edge">
<title>Node17&#45;&gt;Node13</title>
<path fill="none" stroke="black" d="M214.24,-609.55C210.89,-603.78 207.28,-597.2 204.35,-591 200.82,-583.53 197.45,-575.21 194.55,-567.53"/>
<polygon fill="black" stroke="black" points="197.76,-566.13 191.04,-557.94 191.19,-568.53 197.76,-566.13"/>
<text text-anchor="middle" x="211.35" y="-579.8" font-family="Times,serif" font-size="14.00">88</text>
</g>
<!-- Node20 -->
<g id="node20" class="node">
<title>Node20</title>
<ellipse fill="none" stroke="black" cx="280.35" cy="-540" rx="38.19" ry="18"/>
<text text-anchor="middle" x="280.35" y="-536.3" font-family="Times,serif" font-size="14.00">Node20</text>
</g>
<!-- Node17&#45;&gt;Node20 -->
<g id="edge27" class="edge">
<title>Node17&#45;&gt;Node20</title>
<path fill="none" stroke="black" d="M235.14,-609.61C243.28,-597.26 254.58,-580.12 263.84,-566.05"/>
<polygon fill="black" stroke="black" points="267,-567.61 269.58,-557.34 261.16,-563.76 267,-567.61"/>
<text text-anchor="middle" x="262.35" y="-579.8" font-family="Times,serif" font-size="14.00">88</text>
</g>
<!-- Node24&#45;&gt;Node20 -->
<g id="edge28" class="edge">
<title>Node24&#45;&gt;Node20</title>
<path fill="none" stroke="black" d="M307.39,-609.81C303.51,-604.07 299.42,-597.43 296.35,-591 292.85,-583.68 289.85,-575.41 287.43,-567.73"/>
<polygon fill="black" stroke="black" points="290.77,-566.7 284.58,-558.1 284.06,-568.69 290.77,-566.7"/>
<text text-anchor="middle" x="306.85" y="-579.8" font-family="Times,serif" font-size="14.00">142</text>
</g>
<!-- Node28 -->
<g id="node21" class="node">
<title>Node28</title>
<ellipse fill="none" stroke="black" cx="375.35" cy="-540" rx="38.19" ry="18"/>
<text text-anchor="middle" x="375.35" y="-536.3" font-family="Times,serif" font-size="14.00">Node28</text>
</g>
<!-- Node24&#45;&gt;Node28 -->
<g id="edge29" class="edge">
<title>Node24&#45;&gt;Node28</title>
<path fill="none" stroke="black" d="M330.14,-609.61C338.28,-597.26 349.58,-580.12 358.84,-566.05"/>
<polygon fill="black" stroke="black" points="362,-567.61 364.58,-557.34 356.16,-563.76 362,-567.61"/>
<text text-anchor="middle" x="360.85" y="-579.8" font-family="Times,serif" font-size="14.00">192</text>
</g>
<!-- Node25&#45;&gt;Node28 -->
<g id="edge30" class="edge">
<title>Node25&#45;&gt;Node28</title>
<path fill="none" stroke="black" d="M406.64,-609.21C401.14,-597.22 393.63,-580.85 387.35,-567.16"/>
<polygon fill="black" stroke="black" points="390.39,-565.39 383.04,-557.76 384.02,-568.31 390.39,-565.39"/>
<text text-anchor="middle" x="406.85" y="-579.8" font-family="Times,serif" font-size="14.00">142</text>
</g>
<!-- Node32 -->
<g id="node22" class="node">
<title>Node32</title>
<ellipse fill="none" stroke="black" cx="418.35" cy="-453" rx="38.19" ry="18"/>
<text text-anchor="middle" x="418.35" y="-449.3" font-family="Times,serif" font-size="14.00">Node32</text>
</g>
<!-- Node25&#45;&gt;Node32 -->
<g id="edge31" class="edge">
<title>Node25&#45;&gt;Node32</title>
<path fill="none" stroke="black" d="M418.34,-609C419.52,-603.31 420.67,-596.91 421.35,-591 425.67,-553.23 423.42,-509.24 421.13,-481.5"/>
<polygon fill="black" stroke="black" points="424.6,-481.02 420.23,-471.37 417.63,-481.64 424.6,-481.02"/>
<text text-anchor="middle" x="433.85" y="-536.3" font-family="Times,serif" font-size="14.00">520</text>
</g>
<!-- Node15 -->
<g id="node23" class="node">
<title>Node15</title>
<ellipse fill="none" stroke="black" cx="59.35" cy="-366" rx="38.19" ry="18"/>
<text text-anchor="middle" x="59.35" y="-362.3" font-family="Times,serif" font-size="14.00">Node15</text>
</g>
<!-- Node12&#45;&gt;Node15 -->
<g id="edge32" class="edge">
<title>Node12&#45;&gt;Node15</title>
<path fill="none" stroke="black" d="M42.6,-434.8C45.47,-423.16 49.33,-407.55 52.62,-394.24"/>
<polygon fill="black" stroke="black" points="56.1,-394.72 55.1,-384.18 49.31,-393.04 56.1,-394.72"/>
<text text-anchor="middle" x="57.35" y="-405.8" font-family="Times,serif" font-size="14.00">80</text>
</g>
<!-- Node7&#45;&gt;Node12 -->
<g id="edge33" class="edge">
<title>Node7&#45;&gt;Node12</title>
<path fill="none" stroke="black" d="M83.55,-522.61C75.41,-510.26 64.12,-493.12 54.85,-479.05"/>
<polygon fill="black" stroke="black" points="57.54,-476.76 49.11,-470.34 51.69,-480.61 57.54,-476.76"/>
<text text-anchor="middle" x="80.85" y="-492.8" font-family="Times,serif" font-size="14.00">186</text>
</g>
<!-- Node14 -->
<g id="node24" class="node">
<title>Node14</title>
<ellipse fill="none" stroke="black" cx="133.35" cy="-453" rx="38.19" ry="18"/>
<text text-anchor="middle" x="133.35" y="-449.3" font-family="Times,serif" font-size="14.00">Node14</text>
</g>
<!-- Node7&#45;&gt;Node14 -->
<g id="edge34" class="edge">
<title>Node7&#45;&gt;Node14</title>
<path fill="none" stroke="black" d="M96.65,-521.73C98.41,-511.81 101.41,-499.31 106.35,-489 108.12,-485.29 110.34,-481.6 112.73,-478.08"/>
<polygon fill="black" stroke="black" points="115.74,-479.9 118.9,-469.79 110.12,-475.72 115.74,-479.9"/>
<text text-anchor="middle" x="116.85" y="-492.8" font-family="Times,serif" font-size="14.00">102</text>
</g>
<!-- Node13&#45;&gt;Node14 -->
<g id="edge35" class="edge">
<title>Node13&#45;&gt;Node14</title>
<path fill="none" stroke="black" d="M175.32,-522.61C167.82,-510.34 157.41,-493.34 148.84,-479.32"/>
<polygon fill="black" stroke="black" points="151.72,-477.33 143.52,-470.63 145.75,-480.99 151.72,-477.33"/>
<text text-anchor="middle" x="169.35" y="-492.8" font-family="Times,serif" font-size="14.00">94</text>
</g>
<!-- Node19 -->
<g id="node25" class="node">
<title>Node19</title>
<ellipse fill="none" stroke="black" cx="228.35" cy="-453" rx="38.19" ry="18"/>
<text text-anchor="middle" x="228.35" y="-449.3" font-family="Times,serif" font-size="14.00">Node19</text>
</g>
<!-- Node13&#45;&gt;Node19 -->
<g id="edge36" class="edge">
<title>Node13&#45;&gt;Node19</title>
<path fill="none" stroke="black" d="M193.84,-522.21C199.97,-510.1 208.35,-493.53 215.32,-479.76"/>
<polygon fill="black" stroke="black" points="218.48,-481.26 219.87,-470.76 212.23,-478.1 218.48,-481.26"/>
<text text-anchor="middle" x="219.85" y="-492.8" font-family="Times,serif" font-size="14.00">122</text>
</g>
<!-- Node20&#45;&gt;Node19 -->
<g id="edge37" class="edge">
<title>Node20&#45;&gt;Node19</title>
<path fill="none" stroke="black" d="M270.32,-522.61C262.82,-510.34 252.41,-493.34 243.84,-479.32"/>
<polygon fill="black" stroke="black" points="246.72,-477.33 238.52,-470.63 240.75,-480.99 246.72,-477.33"/>
<text text-anchor="middle" x="267.85" y="-492.8" font-family="Times,serif" font-size="14.00">158</text>
</g>
<!-- Node26 -->
<g id="node26" class="node">
<title>Node26</title>
<ellipse fill="none" stroke="black" cx="323.35" cy="-453" rx="38.19" ry="18"/>
<text text-anchor="middle" x="323.35" y="-449.3" font-family="Times,serif" font-size="14.00">Node26</text>
</g>
<!-- Node20&#45;&gt;Node26 -->
<g id="edge38" class="edge">
<title>Node20&#45;&gt;Node26</title>
<path fill="none" stroke="black" d="M288.84,-522.21C294.97,-510.1 303.35,-493.53 310.32,-479.76"/>
<polygon fill="black" stroke="black" points="313.48,-481.26 314.87,-470.76 307.23,-478.1 313.48,-481.26"/>
<text text-anchor="middle" x="314.85" y="-492.8" font-family="Times,serif" font-size="14.00">130</text>
</g>
<!-- Node28&#45;&gt;Node32 -->
<g id="edge40" class="edge">
<title>Node28&#45;&gt;Node32</title>
<path fill="none" stroke="black" d="M383.84,-522.21C389.97,-510.1 398.35,-493.53 405.32,-479.76"/>
<polygon fill="black" stroke="black" points="408.48,-481.26 409.87,-470.76 402.23,-478.1 408.48,-481.26"/>
<text text-anchor="middle" x="406.35" y="-492.8" font-family="Times,serif" font-size="14.00">70</text>
</g>
<!-- Node28&#45;&gt;Node26 -->
<g id="edge39" class="edge">
<title>Node28&#45;&gt;Node26</title>
<path fill="none" stroke="black" d="M365.32,-522.61C357.82,-510.34 347.41,-493.34 338.84,-479.32"/>
<polygon fill="black" stroke="black" points="341.72,-477.33 333.52,-470.63 335.75,-480.99 341.72,-477.33"/>
<text text-anchor="middle" x="359.35" y="-492.8" font-family="Times,serif" font-size="14.00">80</text>
</g>
<!-- Node33 -->
<g id="node27" class="node">
<title>Node33</title>
<ellipse fill="none" stroke="black" cx="344.35" cy="-366" rx="38.19" ry="18"/>
<text text-anchor="middle" x="344.35" y="-362.3" font-family="Times,serif" font-size="14.00">Node33</text>
</g>
<!-- Node32&#45;&gt;Node33 -->
<g id="edge41" class="edge">
<title>Node32&#45;&gt;Node33</title>
<path fill="none" stroke="black" d="M404.43,-436.01C393.26,-423.19 377.44,-405.01 364.83,-390.52"/>
<polygon fill="black" stroke="black" points="367.41,-388.16 358.2,-382.92 362.13,-392.76 367.41,-388.16"/>
<text text-anchor="middle" x="395.85" y="-405.8" font-family="Times,serif" font-size="14.00">222</text>
</g>
<!-- Node22 -->
<g id="node28" class="node">
<title>Node22</title>
<ellipse fill="none" stroke="black" cx="65.35" cy="-279" rx="38.19" ry="18"/>
<text text-anchor="middle" x="65.35" y="-275.3" font-family="Times,serif" font-size="14.00">Node22</text>
</g>
<!-- Node15&#45;&gt;Node22 -->
<g id="edge42" class="edge">
<title>Node15&#45;&gt;Node22</title>
<path fill="none" stroke="black" d="M60.56,-347.8C61.38,-336.16 62.48,-320.55 63.42,-307.24"/>
<polygon fill="black" stroke="black" points="66.92,-307.4 64.13,-297.18 59.94,-306.9 66.92,-307.4"/>
<text text-anchor="middle" x="73.85" y="-318.8" font-family="Times,serif" font-size="14.00">216</text>
</g>
<!-- Node14&#45;&gt;Node15 -->
<g id="edge43" class="edge">
<title>Node14&#45;&gt;Node15</title>
<path fill="none" stroke="black" d="M119.43,-436.01C108.26,-423.19 92.44,-405.01 79.83,-390.52"/>
<polygon fill="black" stroke="black" points="82.41,-388.16 73.2,-382.92 77.13,-392.76 82.41,-388.16"/>
<text text-anchor="middle" x="111.85" y="-405.8" font-family="Times,serif" font-size="14.00">136</text>
</g>
<!-- Node23 -->
<g id="node29" class="node">
<title>Node23</title>
<ellipse fill="none" stroke="black" cx="154.35" cy="-366" rx="38.19" ry="18"/>
<text text-anchor="middle" x="154.35" y="-362.3" font-family="Times,serif" font-size="14.00">Node23</text>
</g>
<!-- Node14&#45;&gt;Node23 -->
<g id="edge44" class="edge">
<title>Node14&#45;&gt;Node23</title>
<path fill="none" stroke="black" d="M136.85,-434.81C138.9,-425.14 141.6,-412.86 144.35,-402 145.02,-399.33 145.75,-396.56 146.51,-393.8"/>
<polygon fill="black" stroke="black" points="149.92,-394.61 149.25,-384.03 143.18,-392.71 149.92,-394.61"/>
<text text-anchor="middle" x="154.85" y="-405.8" font-family="Times,serif" font-size="14.00">158</text>
</g>
<!-- Node19&#45;&gt;Node23 -->
<g id="edge45" class="edge">
<title>Node19&#45;&gt;Node23</title>
<path fill="none" stroke="black" d="M214.43,-436.01C203.26,-423.19 187.44,-405.01 174.83,-390.52"/>
<polygon fill="black" stroke="black" points="177.41,-388.16 168.2,-382.92 172.13,-392.76 177.41,-388.16"/>
<text text-anchor="middle" x="205.85" y="-405.8" font-family="Times,serif" font-size="14.00">106</text>
</g>
<!-- Node30 -->
<g id="node30" class="node">
<title>Node30</title>
<ellipse fill="none" stroke="black" cx="249.35" cy="-366" rx="38.19" ry="18"/>
<text text-anchor="middle" x="249.35" y="-362.3" font-family="Times,serif" font-size="14.00">Node30</text>
</g>
<!-- Node19&#45;&gt;Node30 -->
<g id="edge46" class="edge">
<title>Node19&#45;&gt;Node30</title>
<path fill="none" stroke="black" d="M232.6,-434.8C235.47,-423.16 239.33,-407.55 242.62,-394.24"/>
<polygon fill="black" stroke="black" points="246.1,-394.72 245.1,-384.18 239.31,-393.04 246.1,-394.72"/>
<text text-anchor="middle" x="249.85" y="-405.8" font-family="Times,serif" font-size="14.00">238</text>
</g>
<!-- Node26&#45;&gt;Node33 -->
<g id="edge48" class="edge">
<title>Node26&#45;&gt;Node33</title>
<path fill="none" stroke="black" d="M327.6,-434.8C330.47,-423.16 334.33,-407.55 337.62,-394.24"/>
<polygon fill="black" stroke="black" points="341.1,-394.72 340.1,-384.18 334.31,-393.04 341.1,-394.72"/>
<text text-anchor="middle" x="344.85" y="-405.8" font-family="Times,serif" font-size="14.00">152</text>
</g>
<!-- Node26&#45;&gt;Node30 -->
<g id="edge47" class="edge">
<title>Node26&#45;&gt;Node30</title>
<path fill="none" stroke="black" d="M309.43,-436.01C298.26,-423.19 282.44,-405.01 269.83,-390.52"/>
<polygon fill="black" stroke="black" points="272.41,-388.16 263.2,-382.92 267.13,-392.76 272.41,-388.16"/>
<text text-anchor="middle" x="300.85" y="-405.8" font-family="Times,serif" font-size="14.00">218</text>
</g>
<!-- Node34 -->
<g id="node31" class="node">
<title>Node34</title>
<ellipse fill="none" stroke="black" cx="255.35" cy="-279" rx="38.19" ry="18"/>
<text text-anchor="middle" x="255.35" y="-275.3" font-family="Times,serif" font-size="14.00">Node34</text>
</g>
<!-- Node33&#45;&gt;Node34 -->
<g id="edge49" class="edge">
<title>Node33&#45;&gt;Node34</title>
<path fill="none" stroke="black" d="M328.02,-349.41C314.35,-336.35 294.64,-317.53 279.2,-302.78"/>
<polygon fill="black" stroke="black" points="281.22,-299.87 271.57,-295.49 276.38,-304.93 281.22,-299.87"/>
<text text-anchor="middle" x="314.85" y="-318.8" font-family="Times,serif" font-size="14.00">220</text>
</g>
<!-- Node27 -->
<g id="node32" class="node">
<title>Node27</title>
<ellipse fill="none" stroke="black" cx="96.35" cy="-192" rx="38.19" ry="18"/>
<text text-anchor="middle" x="96.35" y="-188.3" font-family="Times,serif" font-size="14.00">Node27</text>
</g>
<!-- Node22&#45;&gt;Node27 -->
<g id="edge50" class="edge">
<title>Node22&#45;&gt;Node27</title>
<path fill="none" stroke="black" d="M71.47,-261.21C75.77,-249.41 81.62,-233.38 86.56,-219.82"/>
<polygon fill="black" stroke="black" points="89.99,-220.64 90.13,-210.05 83.41,-218.24 89.99,-220.64"/>
<text text-anchor="middle" x="93.85" y="-231.8" font-family="Times,serif" font-size="14.00">178</text>
</g>
<!-- Node23&#45;&gt;Node22 -->
<g id="edge51" class="edge">
<title>Node23&#45;&gt;Node22</title>
<path fill="none" stroke="black" d="M138.02,-349.41C124.35,-336.35 104.64,-317.53 89.2,-302.78"/>
<polygon fill="black" stroke="black" points="91.22,-299.87 81.57,-295.49 86.38,-304.93 91.22,-299.87"/>
<text text-anchor="middle" x="124.85" y="-318.8" font-family="Times,serif" font-size="14.00">114</text>
</g>
<!-- Node29 -->
<g id="node33" class="node">
<title>Node29</title>
<ellipse fill="none" stroke="black" cx="160.35" cy="-279" rx="38.19" ry="18"/>
<text text-anchor="middle" x="160.35" y="-275.3" font-family="Times,serif" font-size="14.00">Node29</text>
</g>
<!-- Node23&#45;&gt;Node29 -->
<g id="edge52" class="edge">
<title>Node23&#45;&gt;Node29</title>
<path fill="none" stroke="black" d="M155.56,-347.8C156.38,-336.16 157.48,-320.55 158.42,-307.24"/>
<polygon fill="black" stroke="black" points="161.92,-307.4 159.13,-297.18 154.94,-306.9 161.92,-307.4"/>
<text text-anchor="middle" x="167.85" y="-318.8" font-family="Times,serif" font-size="14.00">132</text>
</g>
<!-- Node30&#45;&gt;Node34 -->
<g id="edge54" class="edge">
<title>Node30&#45;&gt;Node34</title>
<path fill="none" stroke="black" d="M250.56,-347.8C251.38,-336.16 252.48,-320.55 253.42,-307.24"/>
<polygon fill="black" stroke="black" points="256.92,-307.4 254.13,-297.18 249.94,-306.9 256.92,-307.4"/>
<text text-anchor="middle" x="259.35" y="-318.8" font-family="Times,serif" font-size="14.00">50</text>
</g>
<!-- Node30&#45;&gt;Node29 -->
<g id="edge53" class="edge">
<title>Node30&#45;&gt;Node29</title>
<path fill="none" stroke="black" d="M233.02,-349.41C219.35,-336.35 199.64,-317.53 184.2,-302.78"/>
<polygon fill="black" stroke="black" points="186.22,-299.87 176.57,-295.49 181.38,-304.93 186.22,-299.87"/>
<text text-anchor="middle" x="216.35" y="-318.8" font-family="Times,serif" font-size="14.00">44</text>
</g>
<!-- Node31 -->
<g id="node34" class="node">
<title>Node31</title>
<ellipse fill="none" stroke="black" cx="191.35" cy="-192" rx="38.19" ry="18"/>
<text text-anchor="middle" x="191.35" y="-188.3" font-family="Times,serif" font-size="14.00">Node31</text>
</g>
<!-- Node34&#45;&gt;Node31 -->
<g id="edge55" class="edge">
<title>Node34&#45;&gt;Node31</title>
<path fill="none" stroke="black" d="M243.01,-261.61C233.62,-249.15 220.55,-231.79 209.91,-217.65"/>
<polygon fill="black" stroke="black" points="212.46,-215.22 203.65,-209.34 206.87,-219.43 212.46,-215.22"/>
<text text-anchor="middle" x="233.35" y="-231.8" font-family="Times,serif" font-size="14.00">86</text>
</g>
<!-- Node35 -->
<g id="node35" class="node">
<title>Node35</title>
<ellipse fill="none" stroke="black" cx="143.35" cy="-105" rx="38.19" ry="18"/>
<text text-anchor="middle" x="143.35" y="-101.3" font-family="Times,serif" font-size="14.00">Node35</text>
</g>
<!-- Node27&#45;&gt;Node35 -->
<g id="edge56" class="edge">
<title>Node27&#45;&gt;Node35</title>
<path fill="none" stroke="black" d="M105.63,-174.21C112.33,-162.1 121.49,-145.53 129.1,-131.76"/>
<polygon fill="black" stroke="black" points="132.3,-133.2 134.08,-122.76 126.18,-129.82 132.3,-133.2"/>
<text text-anchor="middle" x="132.85" y="-144.8" font-family="Times,serif" font-size="14.00">264</text>
</g>
<!-- Node29&#45;&gt;Node27 -->
<g id="edge57" class="edge">
<title>Node29&#45;&gt;Node27</title>
<path fill="none" stroke="black" d="M148.01,-261.61C138.62,-249.15 125.55,-231.79 114.91,-217.65"/>
<polygon fill="black" stroke="black" points="117.46,-215.22 108.65,-209.34 111.87,-219.43 117.46,-215.22"/>
<text text-anchor="middle" x="141.85" y="-231.8" font-family="Times,serif" font-size="14.00">164</text>
</g>
<!-- Node29&#45;&gt;Node31 -->
<g id="edge58" class="edge">
<title>Node29&#45;&gt;Node31</title>
<path fill="none" stroke="black" d="M166.47,-261.21C170.77,-249.41 176.62,-233.38 181.56,-219.82"/>
<polygon fill="black" stroke="black" points="184.99,-220.64 185.13,-210.05 178.41,-218.24 184.99,-220.64"/>
<text text-anchor="middle" x="184.35" y="-231.8" font-family="Times,serif" font-size="14.00">64</text>
</g>
<!-- Node31&#45;&gt;Node35 -->
<g id="edge59" class="edge">
<title>Node31&#45;&gt;Node35</title>
<path fill="none" stroke="black" d="M181.86,-174.21C174.98,-162.02 165.55,-145.32 157.74,-131.49"/>
<polygon fill="black" stroke="black" points="160.61,-129.46 152.65,-122.47 154.52,-132.9 160.61,-129.46"/>
<text text-anchor="middle" x="179.85" y="-144.8" font-family="Times,serif" font-size="14.00">316</text>
</g>
<!-- Node1 -->
<g id="node36" class="node">
<title>Node1</title>
<ellipse fill="none" stroke="black" cx="143.35" cy="-18" rx="34.39" ry="18"/>
<text text-anchor="middle" x="143.35" y="-14.3" font-family="Times,serif" font-size="14.00">Node1</text>
</g>
<!-- Node35&#45;&gt;Node1 -->
<g id="edge60" class="edge">
<title>Node35&#45;&gt;Node1</title>
<path fill="none" stroke="black" d="M143.35,-86.8C143.35,-75.16 143.35,-59.55 143.35,-46.24"/>
<polygon fill="black" stroke="black" points="146.85,-46.18 143.35,-36.18 139.85,-46.18 146.85,-46.18"/>
<text text-anchor="middle" x="150.35" y="-57.8" font-family="Times,serif" font-size="14.00">13</text>
</g>
</g>
</svg>
